HIERARCHY
ROOT Hips
{
	OFFSET -3.958830 18.904000 13.208200
	CHANNELS 6 Xposition Yposition Zposition Zrotation Yrotation Xrotation 
	JOINT LHipJoint
	{
		OFFSET 0.000000 0.000000 0.000000
		CHANNELS 3 Zrotation Yrotation Xrotation
		JOINT LeftUpLeg
		{
			OFFSET 1.800000 -1.400000 0.085000
			CHANNELS 3 Zrotation Yrotation Xrotation
			JOINT LeftLeg
			{
				OFFSET 2.215000 -6.000000 0.000000
				CHANNELS 3 Zrotation Yrotation Xrotation
				JOINT LeftFoot
				{
					OFFSET 2.500000 -6.900000 0.000000
					CHANNELS 3 Zrotation Yrotation Xrotation
					JOINT LeftToeBase
					{
						OFFSET 0.200000 -0.500000 1.950000
						CHANNELS 3 Zrotation Yrotation Xrotation
						End Site
						{
							OFFSET 0.000000 0.000000 0.000000
						}
					}
				}
			}
		}
	}
	JOINT RHipJoint
	{
		OFFSET 0.000000 0.000000 0.000000
		CHANNELS 3 Zrotation Yrotation Xrotation
		JOINT RightUpLeg
		{
			OFFSET -1.800000 -1.400000 0.085000
			CHANNELS 3 Zrotation Yrotation Xrotation
			JOINT RightLeg
			{
				OFFSET -2.215000 -6.000000 0.000000
				CHANNELS 3 Zrotation Yrotation Xrotation
				JOINT RightFoot
				{
					OFFSET -2.500000 -6.900000 0.000000
					CHANNELS 3 Zrotation Yrotation Xrotation
					JOINT RightToeBase
					{
						OFFSET -0.200000 -0.500000 1.950000
						CHANNELS 3 Zrotation Yrotation Xrotation
						End Site
						{
							OFFSET 0.000000 0.000000 0.000000
						}
					}
				}
			}
		}
	}
	JOINT LowerBack
	{
		OFFSET 0.000000 0.000000 0.000000
		CHANNELS 3 Zrotation Yrotation Xrotation
		JOINT Spine
		{
			OFFSET -0.087000 1.940000 -0.288900
			CHANNELS 3 Zrotation Yrotation Xrotation
			JOINT Spine1
			{
				OFFSET 0.000000 1.950000 0.060000
				CHANNELS 3 Zrotation Yrotation Xrotation
				JOINT Neck
				{
					OFFSET 0.000000 0.000000 0.000000
					CHANNELS 3 Zrotation Yrotation Xrotation
					JOINT Neck1
					{
						OFFSET 0.000000 1.600000 0.340000
						CHANNELS 3 Zrotation Yrotation Xrotation
						JOINT Head
						{
							OFFSET 0.000000 1.667000 -0.240000
							CHANNELS 3 Zrotation Yrotation Xrotation
							End Site
							{
								OFFSET 0.000000 0.000000 0.000000
							}
						}
					}
				}
				JOINT LeftShoulder
				{
					OFFSET 0.000000 0.000000 0.000000
					CHANNELS 3 Zrotation Yrotation Xrotation
					JOINT LeftArm
					{
						OFFSET 2.700000 1.550000 -0.730000
						CHANNELS 3 Zrotation Yrotation Xrotation
						JOINT LeftForeArm
						{
							OFFSET 5.450000 0.000000 0.000000
							CHANNELS 3 Zrotation Yrotation Xrotation
							JOINT LeftHand
							{
								OFFSET 3.450000 0.000000 0.000000
								CHANNELS 3 Zrotation Yrotation Xrotation
								JOINT LeftHandIndex1
								{
									OFFSET 0.750000 0.000000 0.000000
									CHANNELS 3 Zrotation Yrotation Xrotation
									End Site
									{
										OFFSET 0.000000 0.000000 0.000000
									}
								}
							}
						}
					}
				}
				JOINT RightShoulder
				{
					OFFSET 0.000000 0.000000 0.000000
					CHANNELS 3 Zrotation Yrotation Xrotation
					JOINT RightArm
					{
						OFFSET -2.700000 1.550000 -0.730000
						CHANNELS 3 Zrotation Yrotation Xrotation
						JOINT RightForeArm
						{
							OFFSET -5.450000 0.000000 0.000000
							CHANNELS 3 Zrotation Yrotation Xrotation
							JOINT RightHand
							{
								OFFSET -3.450000 0.000000 0.000000
								CHANNELS 3 Zrotation Yrotation Xrotation
								JOINT RightHandIndex1
								{
									OFFSET -0.750000 0.000000 0.000000
									CHANNELS 3 Zrotation Yrotation Xrotation
									End Site
									{
										OFFSET 0.000000 0.000000 0.000000
									}
								}
							}
						}
					}
				}
			}
		}
	}
}
MOTION
Frames: 10
Frame Time: 0.016667
-0.689150 16.727050 -1.122940 -1.056146 -4.356868 -8.498252 -15.659668 11.994365 4.956934 2.905099 -14.098706 -35.363518 3.041036 11.523332 75.525793 1.271518 13.492022 0.204870 0.076700 -0.234970 -0.131290 18.214019 -8.333198 3.617882 4.861974 9.499338 -35.278398 -4.827108 -10.736143 71.369659 -2.409207 -10.659835 0.695023 -0.349170 0.596700 0.799770 -2.820164 -4.243754 -9.377778 1.920464 -2.319222 49.879466 -0.625543 1.622361 -5.587678 2.558215 -5.127170 -13.034082 -17.390311 4.391341 46.222392 3.122540 -1.439570 -40.336780 6.701063 -30.264220 -1.603542 20.145042 -32.892722 -7.426792 -2.192977 -37.917057 2.532057 -3.498444 2.923301 1.374750 -0.091140 0.617450 0.368750 -10.784026 36.151433 5.411698 -14.564784 17.312329 -13.971974 39.229190 88.400145 35.932187 1.690324 -1.565880 -0.253830 0.517880 0.348290 0.100400 
-0.679600 16.646500 -1.132250 -1.322514 -4.568786 -9.764197 -15.656657 11.991847 4.916411 3.068107 -14.268771 -34.553803 3.137438 11.788007 76.964939 1.285599 13.755813 0.112480 0.135000 -0.162680 -0.097410 18.220890 -8.347678 3.591331 5.195520 9.451309 -34.725263 -5.102414 -11.016853 72.982770 -2.505611 -10.976707 0.593539 -0.282720 0.589330 0.805850 -2.834659 -4.208557 -9.340419 2.027757 -2.556155 51.292420 -0.677610 1.541788 -4.547622 2.329809 -4.848885 -12.465636 -15.808265 3.850758 44.267829 2.981140 -1.215360 -40.816190 7.410696 -30.514926 -1.452504 21.850571 -31.520695 -7.712296 -2.031179 -33.938934 2.226105 -3.504810 2.901215 1.380180 -0.084140 0.624600 0.376800 -11.323203 36.037258 4.377868 -15.285585 16.340250 -16.180305 20.163132 86.903319 19.084853 1.562905 -1.498476 -0.259130 0.531690 0.334800 0.090540 
-0.667010 16.530170 -1.121120 -1.602365 -5.893372 -10.148320 -15.683870 11.892063 4.926720 3.950848 -14.265314 -35.172960 2.803032 13.057292 79.335195 1.449887 14.247797 -0.054849 0.166700 -0.124850 -0.099370 18.229099 -8.154699 3.699659 5.791346 10.304706 -35.309681 -5.662606 -11.059875 75.680609 -2.635299 -11.420614 0.450602 -0.283060 0.543310 0.844710 -2.816741 -4.279589 -9.413364 2.185794 -2.476411 52.039141 -0.404811 1.877718 -4.628910 2.339503 -5.143107 -12.996433 -16.066329 4.378755 43.308197 3.895250 -0.956130 -40.407320 8.123731 -30.684238 -0.571151 21.439030 -29.162342 -7.078349 -1.087692 -29.330853 1.587443 -3.477382 2.944431 1.362040 -0.106980 0.646050 0.370400 -11.920853 36.604984 3.578358 -15.043307 15.715110 -18.266398 -1.246672 84.498557 1.319184 1.479485 -1.297631 -0.195570 0.452420 0.327150 0.104460 
-0.654200 16.433210 -1.101720 -1.784105 -7.004186 -10.718944 -15.706420 11.838937 4.926741 4.770642 -14.283031 -35.307245 2.299514 14.234031 81.106080 1.581198 14.666221 -0.156481 0.171500 -0.096810 -0.130760 18.230740 -8.012265 3.763772 6.427755 10.799496 -35.657619 -6.457489 -11.042454 78.260912 -2.733866 -11.842919 0.364625 -0.264210 0.563130 0.830220 -2.796600 -4.382764 -9.461481 2.500470 -2.636232 52.326674 -0.041414 1.826749 -4.189109 2.268993 -5.595188 -13.185421 -16.691222 4.655420 42.266705 4.239350 -1.426170 -38.778650 7.202732 -30.279636 0.371977 20.908310 -27.334916 -6.214408 -0.621301 -24.825032 1.130125 -3.507765 2.858153 1.317910 -0.088660 0.623960 0.387110 -10.826621 36.587774 3.310867 -15.858428 15.488468 -18.759384 -5.294873 84.305444 -1.797896 1.477286 -1.235349 -0.183230 0.460020 0.321860 0.130080 
-0.647180 16.379370 -1.059500 -1.582020 -8.380668 -10.939491 -15.699170 11.768669 4.914198 5.317961 -13.912305 -35.436456 1.789925 15.552392 82.352891 1.764774 14.982321 -0.197423 0.163150 -0.089630 -0.162810 18.244234 -7.953306 3.852574 6.334778 11.449289 -35.910841 -6.700501 -11.037047 79.948121 -2.782549 -12.096968 0.343390 -0.279730 0.562660 0.779690 -2.833363 -4.281828 -9.527680 3.138571 -2.821508 51.586174 -0.404150 1.822422 -4.490687 2.461194 -6.135763 -13.792999 -18.207929 4.841229 43.543359 5.608700 -2.543670 -35.884910 4.750968 -30.227239 1.766217 19.448383 -25.860522 -5.196318 -0.734269 -21.851199 1.017646 -3.476707 2.777123 1.272710 -0.100140 0.602390 0.418810 -8.562535 37.250687 3.333029 -15.117634 16.648538 -19.084493 -19.136182 81.448569 -11.494445 1.513575 -0.956620 -0.170180 0.445170 0.273130 0.164870 
-0.637000 16.371060 -0.999350 -1.420770 -10.061927 -11.415382 -15.700863 11.821363 4.813517 5.786524 -13.122776 -34.702479 1.524388 16.564251 82.948954 1.870480 15.203729 -0.234314 0.155410 -0.090550 -0.182370 18.233674 -7.920203 3.922251 5.930727 12.038472 -35.595331 -6.419674 -11.383561 81.245468 -2.830573 -12.333534 0.304382 -0.287160 0.571460 0.764480 -2.817530 -4.297141 -9.544546 3.800440 -2.681499 50.653034 -0.523166 1.944335 -3.852672 2.743825 -6.498335 -14.040629 -19.005464 5.376817 44.232453 5.471680 -2.968750 -33.906840 2.046962 -29.314634 3.383216 16.305864 -23.743210 -4.292126 2.128521 -20.813735 0.276428 -3.510703 2.717327 1.238330 -0.092560 0.585030 0.432100 -6.350066 36.894233 3.284114 -14.132199 17.375025 -18.962636 -24.464269 81.347634 -15.523033 1.534083 -0.814505 -0.159760 0.437460 0.259040 0.184070 
-0.615710 16.409220 -0.921570 -1.241415 -11.844084 -12.522200 -15.698272 11.997130 4.719165 6.373039 -12.415405 -32.876072 0.412889 17.863299 82.561214 1.927204 15.385054 -0.251304 0.123670 -0.138550 -0.187630 18.194663 -8.023221 3.835726 5.011577 11.786889 -33.918487 -5.463572 -12.247525 81.218472 -2.826684 -12.424251 0.307337 -0.303050 0.595330 0.733070 -2.753411 -4.381671 -9.502715 4.339026 -2.675699 49.973630 -0.551532 1.886761 -2.913674 3.191372 -6.328162 -14.342409 -18.632037 5.842391 45.536676 4.048540 -2.953270 -31.342710 -1.170573 -28.741058 5.171731 13.167820 -20.755836 -3.492981 3.872156 -20.210543 -0.195241 -3.537440 2.648437 1.224510 -0.069840 0.549540 0.433110 -4.028943 36.452663 3.185852 -12.554018 17.681999 -19.055311 -31.897702 83.269610 -22.310203 1.499646 -0.564245 -0.192920 0.456750 0.259940 0.175130 
-0.601060 16.468650 -0.840620 -1.137812 -13.849378 -13.274828 -15.728106 12.160182 4.591182 7.480243 -11.503347 -30.909019 -1.181964 19.248684 81.080088 1.914298 15.494252 -0.274071 0.104540 -0.148290 -0.191520 18.132912 -8.078097 3.771441 3.718631 11.636645 -32.828151 -3.902505 -13.516562 80.793375 -2.822518 -12.557672 0.275926 -0.279650 0.646160 0.754090 -2.605448 -4.495845 -9.450731 4.480859 -2.079976 48.077244 0.112088 1.820372 0.047894 3.502484 -5.328404 -13.678355 -15.358255 5.500779 45.043739 0.401360 -1.888600 -29.376130 -2.953399 -28.050357 6.938027 9.352595 -17.781410 -2.677311 6.178226 -19.549589 -0.832656 -3.636104 2.619110 1.174220 0.009680 0.517080 0.432710 -3.117704 35.207736 1.945899 -9.225769 17.930924 -20.504668 -54.855076 86.559753 -42.605454 1.114617 0.703218 -0.210640 0.480840 0.283010 0.171080 
-0.577380 16.564260 -0.747960 -1.200128 -16.964778 -14.005777 -15.719615 12.277184 4.450527 9.490108 -10.189992 -28.230745 -4.070551 21.437696 78.303523 1.864201 15.569461 -0.326946 0.143070 -0.080160 -0.149840 18.104248 -8.145428 3.749021 2.352927 11.708691 -31.772856 -2.042485 -14.891684 80.142176 -2.826023 -12.700163 0.224044 -0.200620 0.656610 0.772920 -2.556078 -4.477250 -9.416835 4.642359 -1.724376 45.341559 0.525228 1.129941 5.198111 3.515969 -3.510454 -13.519748 -10.972125 4.763796 44.289963 -2.994870 -0.634570 -27.772730 -3.582697 -26.844379 7.935063 5.807766 -16.369425 -1.181741 7.117428 -14.184384 -1.174651 -3.780934 2.527255 1.115890 0.084150 0.498880 0.428730 -2.744616 32.197655 2.649850 -4.996210 21.348292 -16.878794 -88.675707 80.115766 -67.568280 0.421079 4.294774 -0.214650 0.487630 0.274650 0.154170 
-0.548630 16.676490 -0.634240 -1.669894 -19.776441 -14.503453 -15.633597 12.249602 4.307684 11.785458 -8.865034 -25.413252 -6.789972 23.253743 75.285991 1.807185 15.606367 -0.347245 0.152540 -0.078190 -0.121310 18.150677 -8.343062 3.711437 0.216550 11.642647 -30.722127 0.632487 -16.936945 78.938262 -2.834701 -12.889998 0.152867 -0.163400 0.697010 0.816600 -2.748301 -4.017751 -9.277772 7.123297 -2.601396 42.460317 -0.907861 0.074566 11.185522 3.648439 -2.512618 -14.819814 -8.101604 4.653750 42.675761 -6.415520 0.523520 -26.120470 -3.124201 -25.634602 8.577735 2.306692 -14.080139 -0.079078 7.571019 -11.772522 -1.356788 -3.913459 2.465202 1.073380 0.165440 0.469310 0.425210 -3.864622 29.651371 6.505153 1.268898 22.502843 -11.397063 -110.321244 65.155713 -95.504819 1.871032 0.401987 -0.226730 0.491510 0.290540 0.137820 
